<svg version="1.1" id="Layer_1" xmlns="http://www.w3.org/2000/svg" xmlns:xlink="http://www.w3.org/1999/xlink" x="0px" y="0px"
	 width="100%" viewBox="0 0 512 512" enable-background="new 0 0 512 512" xml:space="preserve">
<path fill="#FF1100" opacity="1.000000" stroke="none" 
	d="
M396.000000,513.000000 
	C303.645782,513.000000 211.291550,513.000000 118.468658,512.532166 
	C118.000000,341.709564 118.000000,171.354782 118.000000,1.000000 
	C210.354233,1.000000 302.708466,1.000000 395.531342,1.467854 
	C396.000000,172.290466 396.000000,342.645233 396.000000,513.000000 
z"/>
<path fill="#FFFFFF" opacity="1.000000" stroke="none" 
	d="
M117.532150,1.000000 
	C118.000000,171.354782 118.000000,341.709564 118.000000,512.532166 
	C79.022797,513.000000 40.045593,513.000000 1.034196,513.000000 
	C1.034196,342.455902 1.034196,171.911789 1.034196,1.000000 
	C39.687321,1.000000 78.375809,1.000000 117.532150,1.000000 
z"/>
<path fill="#FFFFFF" opacity="1.000000" stroke="none" 
	d="
M396.467834,513.000000 
	C396.000000,342.645233 396.000000,172.290466 396.000000,1.467854 
	C434.977203,1.000000 473.954376,1.000000 512.965820,1.000000 
	C512.965820,171.544067 512.965820,342.088135 512.965820,513.000000 
	C474.312683,513.000000 435.624176,513.000000 396.467834,513.000000 
z"/>
</svg>